<?xml version="1.0"?>
<svg xmlns="http://www.w3.org/2000/svg" xmlns:xlink="http://www.w3.org/1999/xlink" xmlns:svgjs="http://svgjs.com/svgjs" version="1.1" width="512" height="512" x="0" y="0" viewBox="0 0 32 32" style="enable-background:new 0 0 512 512" xml:space="preserve" class=""><g>
<g xmlns="http://www.w3.org/2000/svg">
	<g id="fullscreen">
		<g>
			<polygon style="" points="27.414,24.586 22.828,20 20,22.828 24.586,27.414 20,32 32,32 32,20    " fill="#ffffff" data-original="#030104" class=""/>
			<polygon style="" points="12,0 0,0 0,12 4.586,7.414 9.129,11.953 11.957,9.125 7.414,4.586    " fill="#ffffff" data-original="#030104" class=""/>
			<polygon style="" points="12,22.828 9.172,20 4.586,24.586 0,20 0,32 12,32 7.414,27.414    " fill="#ffffff" data-original="#030104" class=""/>
			<polygon style="" points="32,0 20,0 24.586,4.586 20.043,9.125 22.871,11.953 27.414,7.414 32,12    " fill="#ffffff" data-original="#030104" class=""/>
		</g>
	</g>
</g>
<g xmlns="http://www.w3.org/2000/svg">
</g>
<g xmlns="http://www.w3.org/2000/svg">
</g>
<g xmlns="http://www.w3.org/2000/svg">
</g>
<g xmlns="http://www.w3.org/2000/svg">
</g>
<g xmlns="http://www.w3.org/2000/svg">
</g>
<g xmlns="http://www.w3.org/2000/svg">
</g>
<g xmlns="http://www.w3.org/2000/svg">
</g>
<g xmlns="http://www.w3.org/2000/svg">
</g>
<g xmlns="http://www.w3.org/2000/svg">
</g>
<g xmlns="http://www.w3.org/2000/svg">
</g>
<g xmlns="http://www.w3.org/2000/svg">
</g>
<g xmlns="http://www.w3.org/2000/svg">
</g>
<g xmlns="http://www.w3.org/2000/svg">
</g>
<g xmlns="http://www.w3.org/2000/svg">
</g>
<g xmlns="http://www.w3.org/2000/svg">
</g>
</g></svg>
