<svg height="512" viewBox="0 0 512 512" width="512" xmlns="http://www.w3.org/2000/svg"><g><path d="m476 112h-440a28.032 28.032 0 0 0 -28 28v232a28.032 28.032 0 0 0 28 28h440a28.032 28.032 0 0 0 28-28v-232a28.032 28.032 0 0 0 -28-28zm12 260a12.013 12.013 0 0 1 -12 12h-440a12.013 12.013 0 0 1 -12-12v-232a12.013 12.013 0 0 1 12-12h440a12.013 12.013 0 0 1 12 12z"/><path d="m376 328h-240a8 8 0 0 0 -8 8v32a8 8 0 0 0 8 8h240a8 8 0 0 0 8-8v-32a8 8 0 0 0 -8-8zm-8 32h-224v-16h224z"/><path d="m104 328h-56a8 8 0 0 0 -8 8v32a8 8 0 0 0 8 8h56a8 8 0 0 0 8-8v-32a8 8 0 0 0 -8-8zm-8 32h-40v-16h40z"/><path d="m464 328h-56a8 8 0 0 0 -8 8v32a8 8 0 0 0 8 8h56a8 8 0 0 0 8-8v-32a8 8 0 0 0 -8-8zm-8 32h-40v-16h40z"/><path d="m464 264h-96a8 8 0 0 0 -8 8v32a8 8 0 0 0 8 8h96a8 8 0 0 0 8-8v-32a8 8 0 0 0 -8-8zm-8 32h-80v-16h80z"/><path d="m48 312h32a8 8 0 0 0 8-8v-32a8 8 0 0 0 -8-8h-32a8 8 0 0 0 -8 8v32a8 8 0 0 0 8 8zm8-32h16v16h-16z"/><path d="m152 304v-32a8 8 0 0 0 -8-8h-32a8 8 0 0 0 -8 8v32a8 8 0 0 0 8 8h32a8 8 0 0 0 8-8zm-16-8h-16v-16h16z"/><path d="m176 312h32a8 8 0 0 0 8-8v-32a8 8 0 0 0 -8-8h-32a8 8 0 0 0 -8 8v32a8 8 0 0 0 8 8zm8-32h16v16h-16z"/><path d="m240 312h32a8 8 0 0 0 8-8v-32a8 8 0 0 0 -8-8h-32a8 8 0 0 0 -8 8v32a8 8 0 0 0 8 8zm8-32h16v16h-16z"/><path d="m304 312h32a8 8 0 0 0 8-8v-32a8 8 0 0 0 -8-8h-32a8 8 0 0 0 -8 8v32a8 8 0 0 0 8 8zm8-32h16v16h-16z"/><path d="m48 248h32a8 8 0 0 0 8-8v-32a8 8 0 0 0 -8-8h-32a8 8 0 0 0 -8 8v32a8 8 0 0 0 8 8zm8-32h16v16h-16z"/><path d="m112 248h32a8 8 0 0 0 8-8v-32a8 8 0 0 0 -8-8h-32a8 8 0 0 0 -8 8v32a8 8 0 0 0 8 8zm8-32h16v16h-16z"/><path d="m176 248h32a8 8 0 0 0 8-8v-32a8 8 0 0 0 -8-8h-32a8 8 0 0 0 -8 8v32a8 8 0 0 0 8 8zm8-32h16v16h-16z"/><path d="m240 248h32a8 8 0 0 0 8-8v-32a8 8 0 0 0 -8-8h-32a8 8 0 0 0 -8 8v32a8 8 0 0 0 8 8zm8-32h16v16h-16z"/><path d="m304 248h32a8 8 0 0 0 8-8v-32a8 8 0 0 0 -8-8h-32a8 8 0 0 0 -8 8v32a8 8 0 0 0 8 8zm8-32h16v16h-16z"/><path d="m368 248h32a8 8 0 0 0 8-8v-32a8 8 0 0 0 -8-8h-32a8 8 0 0 0 -8 8v32a8 8 0 0 0 8 8zm8-32h16v16h-16z"/><path d="m464 200h-32a8 8 0 0 0 -8 8v32a8 8 0 0 0 8 8h32a8 8 0 0 0 8-8v-32a8 8 0 0 0 -8-8zm-8 32h-16v-16h16z"/><path d="m48 184h32a8 8 0 0 0 8-8v-32a8 8 0 0 0 -8-8h-32a8 8 0 0 0 -8 8v32a8 8 0 0 0 8 8zm8-32h16v16h-16z"/><path d="m112 184h32a8 8 0 0 0 8-8v-32a8 8 0 0 0 -8-8h-32a8 8 0 0 0 -8 8v32a8 8 0 0 0 8 8zm8-32h16v16h-16z"/><path d="m176 184h32a8 8 0 0 0 8-8v-32a8 8 0 0 0 -8-8h-32a8 8 0 0 0 -8 8v32a8 8 0 0 0 8 8zm8-32h16v16h-16z"/><path d="m240 184h32a8 8 0 0 0 8-8v-32a8 8 0 0 0 -8-8h-32a8 8 0 0 0 -8 8v32a8 8 0 0 0 8 8zm8-32h16v16h-16z"/><path d="m304 184h32a8 8 0 0 0 8-8v-32a8 8 0 0 0 -8-8h-32a8 8 0 0 0 -8 8v32a8 8 0 0 0 8 8zm8-32h16v16h-16z"/><path d="m368 184h32a8 8 0 0 0 8-8v-32a8 8 0 0 0 -8-8h-32a8 8 0 0 0 -8 8v32a8 8 0 0 0 8 8zm8-32h16v16h-16z"/><path d="m464 136h-32a8 8 0 0 0 -8 8v32a8 8 0 0 0 8 8h32a8 8 0 0 0 8-8v-32a8 8 0 0 0 -8-8zm-8 32h-16v-16h16z"/></g></svg>