<?xml version="1.0" encoding="iso-8859-1"?>
<!-- Generator: Adobe Illustrator 19.0.0, SVG Export Plug-In . SVG Version: 6.00 Build 0)  -->
<svg version="1.1" id="Capa_1" xmlns="http://www.w3.org/2000/svg" xmlns:xlink="http://www.w3.org/1999/xlink" x="0px" y="0px"
	 viewBox="0 0 512 512" style="enable-background:new 0 0 512 512;" xml:space="preserve">
<g>
	<g>
		<path d="M467,151h-16v-19.6c0-22.828-18.572-41.4-41.4-41.4h-27.386L296.606,4.393c-2.687-2.688-6.397-4.321-10.376-4.382
			C286.153,0.01,286.078,0,286,0H136c-8.284,0-15,6.716-15,15v75h-18.6C79.572,90,61,108.572,61,131.4V151H45
			c-24.813,0-45,20.187-45,45v180c0,24.813,20.187,45,45,45h76v76c0,8.284,6.716,15,15,15h240c8.284,0,15-6.716,15-15v-76h76
			c24.813,0,45-20.187,45-45V196C512,171.187,491.813,151,467,151z M391,120h18.6c6.286,0,11.4,5.114,11.4,11.4V151h-30V120z
			 M301,51.213L339.787,90H301V51.213z M151,166V30h120v75c0,8.284,6.716,15,15,15h60h15v46v15H151V166z M91,131.4
			c0-6.286,5.114-11.4,11.4-11.4H121v31H91V131.4z M361,482H151V331h210V482z M482,376c0,8.271-6.729,15-15,15h-76v-60h15
			c8.284,0,15-6.716,15-15s-6.716-15-15-15h-30H136h-30c-8.284,0-15,6.716-15,15s6.716,15,15,15h15v60H45c-8.271,0-15-6.729-15-15
			V196c0-8.271,6.729-15,15-15c15.615,0,60.337,0,76,0v15c0,8.284,6.716,15,15,15h240c8.284,0,15-6.716,15-15v-15
			c15.663,0,60.385,0,76,0c8.271,0,15,6.729,15,15V376z" fill="#ffffff"/>
	</g>
</g>
<g>
	<g>
		<path d="M436,241h-30c-8.284,0-15,6.716-15,15s6.716,15,15,15h30c8.284,0,15-6.716,15-15S444.284,241,436,241z" fill="#ffffff"/>
	</g>
</g>
<g>
	<g>
		<path d="M316,361H196c-8.284,0-15,6.716-15,15s6.716,15,15,15h120c8.284,0,15-6.716,15-15S324.284,361,316,361z" fill="#ffffff"/>
	</g>
</g>
<g>
	<g>
		<path d="M316,421H196c-8.284,0-15,6.716-15,15s6.716,15,15,15h120c8.284,0,15-6.716,15-15S324.284,421,316,421z" fill="#ffffff"/>
	</g>
</g>
<g>
</g>
<g>
</g>
<g>
</g>
<g>
</g>
<g>
</g>
<g>
</g>
<g>
</g>
<g>
</g>
<g>
</g>
<g>
</g>
<g>
</g>
<g>
</g>
<g>
</g>
<g>
</g>
<g>
</g>
</svg>
