<?xml version="1.0" encoding="iso-8859-1"?>
<!-- Generator: Adobe Illustrator 19.0.0, SVG Export Plug-In . SVG Version: 6.00 Build 0)  -->
<svg version="1.1" id="Layer_1" xmlns="http://www.w3.org/2000/svg" xmlns:xlink="http://www.w3.org/1999/xlink" x="0px" y="0px"
	 viewBox="0 0 512 512" style="enable-background:new 0 0 512 512;" xml:space="preserve">
<g>
	<g>
		<path d="M445.771,238.813L264.437,4.146c-2.023-2.617-5.235-4.148-8.447-4.146c-3.205,0.003-6.409,1.534-8.428,4.146
			L66.229,238.813c-2.49,3.219-2.927,7.573-1.135,11.219c1.792,3.656,5.5,5.969,9.573,5.969h96v245.333
			c0,5.896,4.771,10.667,10.667,10.667h149.333c5.896,0,10.667-4.771,10.667-10.667V256h96c4.073,0,7.781-2.313,9.573-5.969
			C448.698,246.385,448.26,242.031,445.771,238.813z M330.667,234.667c-5.896,0-10.667,4.771-10.667,10.667v245.333H192V245.333
			c0-5.896-4.771-10.667-10.667-10.667H96.385L256,28.115l159.615,206.552H330.667z"/>
	</g>
</g>
<g>
</g>
<g>
</g>
<g>
</g>
<g>
</g>
<g>
</g>
<g>
</g>
<g>
</g>
<g>
</g>
<g>
</g>
<g>
</g>
<g>
</g>
<g>
</g>
<g>
</g>
<g>
</g>
<g>
</g>
</svg>
